<svg width="72" height="46" viewBox="0 0 72 46" fill="none" xmlns="http://www.w3.org/2000/svg">
<path fill-rule="evenodd" clip-rule="evenodd" d="M1.48688 43.9392C2.02976 44.2674 2.94969 44.636 3.82417 44.636C5.08374 44.636 5.68544 43.9984 5.68544 43.1537C5.68544 42.2874 5.18001 41.8409 3.90172 41.3432C2.14742 40.6975 1.33178 39.7317 1.33178 38.548C1.33178 36.9474 2.61274 35.6318 4.67725 35.6318C5.65603 35.6318 6.51981 35.9009 7.03326 36.2479L6.61608 37.5607C6.23901 37.3132 5.54104 36.9635 4.63714 36.9635C3.58884 36.9635 3.02725 37.5796 3.02725 38.3167C3.02725 39.1426 3.58884 39.5111 4.85108 40.0169C6.50911 40.6545 7.39161 41.5207 7.39161 42.9923C7.39161 44.7544 6.05449 45.9865 3.79475 45.9865C2.73843 45.9865 1.75966 45.6986 1.0697 45.2897L1.48688 43.9392Z" fill="#2B2A29"/>
<path fill-rule="evenodd" clip-rule="evenodd" d="M15.5533 45.4242C15.0987 45.6529 14.0691 45.9999 12.7721 45.9999C9.85452 45.9999 7.95312 43.9715 7.95312 40.9262C7.95312 37.8701 9.98823 35.6318 13.1599 35.6318C14.1975 35.6318 15.1174 35.9009 15.6041 36.1699L15.2057 37.5419C14.7885 37.3132 14.1306 37.0738 13.1706 37.0738C10.951 37.0738 9.74755 38.774 9.74755 40.8347C9.74755 43.1322 11.1916 44.5472 13.1117 44.5472C14.1092 44.5472 14.7698 44.2997 15.2725 44.0791L15.5533 45.4242Z" fill="#2B2A29"/>
<path fill-rule="evenodd" clip-rule="evenodd" d="M16.6097 31.1929H18.3747V45.7712H16.6097V31.1929Z" fill="#2B2A29"/>
<path fill-rule="evenodd" clip-rule="evenodd" d="M21.4394 40.8267C21.4394 43.0057 22.6428 44.6468 24.357 44.6468C26.0337 44.6468 27.2933 43.0246 27.2933 40.7863C27.2933 39.1049 26.4696 36.985 24.3944 36.985C22.3299 36.985 21.4394 38.9543 21.4394 40.8267ZM29.0957 40.7164C29.0957 44.3885 26.5953 45.9892 24.2768 45.9892C21.6774 45.9892 19.6343 44.02 19.6343 40.8751C19.6343 37.5715 21.7763 35.6211 24.4319 35.6211C27.2158 35.6319 29.0957 37.7006 29.0957 40.7164Z" fill="#2B2A29"/>
<path fill-rule="evenodd" clip-rule="evenodd" d="M38.4128 43.0462C38.4128 44.09 38.4315 44.9966 38.4904 45.7714H36.9313L36.835 44.1492H36.7976C36.3617 44.9455 35.3134 46.0001 33.5992 46.0001C32.0775 46.0001 30.2537 45.115 30.2537 41.6527V35.8418H32.0187V41.3245C32.0187 43.2157 32.6017 44.5097 34.1795 44.5097C35.3615 44.5097 36.1771 43.665 36.4954 42.8471C36.5917 42.5996 36.6505 42.2714 36.6505 41.9217V35.8311H38.4155V43.0462H38.4128Z" fill="#2B2A29"/>
<path fill-rule="evenodd" clip-rule="evenodd" d="M46.9356 39.8798C46.9356 39.6512 46.9169 39.3418 46.858 39.1239C46.596 37.9886 45.6359 37.0551 44.3175 37.0551C42.4964 37.0551 41.4186 38.6961 41.4186 40.8752C41.4186 42.8848 42.3974 44.5474 44.2774 44.5474C45.4594 44.5474 46.5371 43.7215 46.8554 42.3871C46.9142 42.1396 46.9329 41.8894 46.9329 41.6123V39.8798H46.9356ZM48.6792 31.1931V43.2023C48.6792 44.0873 48.7193 45.0935 48.7567 45.7687H47.195L47.1174 44.047H47.0586C46.5344 45.1527 45.3819 45.9974 43.8014 45.9974C41.4641 45.9974 39.643 43.969 39.643 40.9425C39.6242 37.6389 41.6406 35.6293 43.9859 35.6293C45.4888 35.6293 46.4676 36.3449 46.9035 37.1304H46.9409V31.1904H48.6792V31.1931Z" fill="#2B2A29"/>
<path fill-rule="evenodd" clip-rule="evenodd" d="M49.9976 44.7061C49.9976 43.969 50.5003 43.4121 51.1983 43.4121C51.8963 43.4121 52.3804 43.9502 52.3804 44.7061C52.3804 45.4432 51.8963 46.0001 51.1582 46.0001C50.4843 46.0001 49.9976 45.4432 49.9976 44.7061Z" fill="#2B2A29"/>
<path fill-rule="evenodd" clip-rule="evenodd" d="M53.557 38.9354C53.557 37.7625 53.5383 36.7564 53.4795 35.8309H55.0199L55.0974 37.8002H55.1562C55.5921 36.4658 56.6779 35.6211 57.8599 35.6211C58.0444 35.6211 58.1808 35.6399 58.3439 35.6614V37.3617C58.1594 37.3213 57.9856 37.3213 57.7422 37.3213C56.5014 37.3213 55.6189 38.2656 55.3782 39.6188C55.3381 39.8663 55.3194 40.1756 55.3194 40.4635V45.7578H53.5544V38.9354H53.557Z" fill="#808285"/>
<path fill-rule="evenodd" clip-rule="evenodd" d="M67.2064 43.0462C67.2064 44.09 67.2251 44.9966 67.284 45.7714H65.7222L65.6259 44.1492H65.5885C65.1526 44.9455 64.1043 46.0001 62.3901 46.0001C60.8685 46.0001 59.0446 45.115 59.0446 41.6527V35.8418H60.8096V41.3245C60.8096 43.2157 61.3926 44.5097 62.9704 44.5097C64.1524 44.5097 64.9681 43.665 65.2863 42.8471C65.3826 42.5996 65.4521 42.2714 65.4521 41.9217V35.8311H67.2171V43.0462H67.2064Z" fill="#808285"/>
<path fill-rule="evenodd" clip-rule="evenodd" d="M0.278121 30.647C0.077553 29.7969 0 28.9656 0 28.2231C0 26.7381 0.278121 25.6593 0.278121 25.6593C0.344977 25.1939 0.44125 24.7688 0.556242 24.3519C0.641818 24.0559 0.727394 23.7681 0.834364 23.491C0.919939 23.2623 1.00551 23.0444 1.11248 22.8292C1.19806 22.6409 1.29433 22.4526 1.39061 22.2858C1.47618 22.1271 1.57245 21.9683 1.66873 21.8204C1.7543 21.6805 1.85058 21.5433 1.94685 21.4141C2.03242 21.285 2.1287 21.1666 2.22497 21.0483C2.31055 20.9407 2.40682 20.8304 2.50309 20.7228C2.58867 20.6232 2.68494 20.5237 2.78121 20.4268C2.86679 20.3381 2.96306 20.2493 3.05933 20.1605C3.14491 20.0717 3.24118 19.991 3.33745 19.913C3.42303 19.835 3.5193 19.765 3.61558 19.6843C3.70115 19.6144 3.79742 19.5444 3.8937 19.4772C3.98997 19.4072 4.07554 19.3481 4.17182 19.2889C4.26809 19.2297 4.35367 19.1705 4.44994 19.1113C4.54621 19.0521 4.63179 19.0037 4.72806 18.9526C4.82433 18.9042 4.90991 18.8531 5.00618 18.8046C5.10245 18.7562 5.18803 18.7159 5.2843 18.6647C5.38058 18.6244 5.46615 18.576 5.56242 18.5356C5.6587 18.4953 5.74427 18.4576 5.84054 18.4172C5.93682 18.3769 6.02239 18.3473 6.11867 18.3096C6.21494 18.28 6.30051 18.2397 6.39679 18.2101C6.49306 18.1805 6.57864 18.1509 6.67491 18.1213C6.77118 18.0917 6.85676 18.0729 6.95303 18.0433C7.0493 18.0137 7.1429 17.9949 7.23115 17.9734C7.32742 17.9545 7.42102 17.933 7.50927 17.9142C7.61357 17.8953 7.69914 17.8738 7.78739 17.8657C7.90239 17.8469 7.98796 17.8362 8.06551 17.8254C8.16179 17.8146 8.20992 17.8066 8.20992 17.8066C8.20992 17.8066 8.22864 17.4003 8.33294 16.717C8.3891 16.3512 8.47735 15.8965 8.61106 15.38C8.68861 15.0733 8.77419 14.737 8.88918 14.3792C8.96673 14.1129 9.06033 13.8358 9.1673 13.5479C9.25288 13.3112 9.33845 13.0637 9.44542 12.8162C9.531 12.5983 9.61658 12.3804 9.72354 12.1625C9.80912 11.9634 9.8947 11.767 10.0017 11.5679C10.0872 11.3904 10.1835 11.2021 10.2798 11.0245C10.3654 10.855 10.4616 10.6882 10.5579 10.5107C10.6435 10.352 10.7398 10.1932 10.836 10.0345C10.9216 9.88655 11.0179 9.73859 11.1142 9.58794C11.1997 9.44805 11.296 9.30009 11.3923 9.16289C11.4778 9.02299 11.5741 8.89655 11.6704 8.75666C11.756 8.62753 11.8522 8.4984 11.9485 8.37196C12.0341 8.25359 12.1304 8.12446 12.2266 8.00609C12.3122 7.88772 12.4085 7.77742 12.5048 7.65905C12.5903 7.55144 12.6866 7.44114 12.7829 7.32277C12.8685 7.21517 12.9647 7.10487 13.061 7.00533C13.1466 6.90579 13.2428 6.79818 13.3391 6.69864C13.4247 6.59911 13.521 6.49957 13.6172 6.40272C13.7028 6.30318 13.7991 6.21441 13.8954 6.11487C13.9809 6.02609 14.0772 5.93731 14.1735 5.83777C14.2591 5.749 14.3553 5.66022 14.4516 5.57144C14.5372 5.48267 14.6335 5.40196 14.7297 5.31318C14.8153 5.23517 14.9116 5.15446 15.0078 5.06568C15.0934 4.98767 15.1897 4.90696 15.286 4.82894C15.3715 4.75093 15.4678 4.68098 15.5641 4.60027C15.6497 4.53033 15.7459 4.45231 15.8422 4.38237C15.9278 4.31242 16.0241 4.24516 16.1203 4.16446C16.2059 4.09451 16.3022 4.02457 16.3985 3.95731C16.484 3.88737 16.5803 3.82011 16.6766 3.75824C16.7621 3.68829 16.8584 3.6291 16.9547 3.55916C17.0403 3.49997 17.1365 3.43003 17.2328 3.37084C17.3184 3.31166 17.4147 3.25247 17.5109 3.19329C17.5965 3.1341 17.6928 3.07492 17.7891 3.01574C17.8746 2.95655 17.9709 2.89737 18.0672 2.83818C18.1528 2.779 18.249 2.73057 18.3453 2.6687C18.4309 2.60951 18.5271 2.56109 18.6234 2.50997C18.709 2.46155 18.8053 2.40237 18.9015 2.35125C18.9871 2.30283 19.0834 2.25171 19.1797 2.20329C19.2652 2.15487 19.3615 2.10375 19.4578 2.05533C19.5434 2.0069 19.6396 1.95579 19.7359 1.91544C19.8215 1.86701 19.9178 1.82666 20.014 1.77554C20.0434 1.76478 20.0702 1.74595 20.0996 1.73519C20.1665 1.7056 20.2226 1.67601 20.2895 1.64641C20.3857 1.60606 20.4713 1.55764 20.5676 1.51728C20.6639 1.47693 20.7494 1.43927 20.8457 1.39891C20.942 1.35856 21.0276 1.3209 21.1238 1.28054C21.2201 1.24019 21.3057 1.20253 21.402 1.17294C21.4982 1.13258 21.5838 1.09492 21.6801 1.06533C21.7764 1.02497 21.8619 0.995381 21.9582 0.965789C22.0545 0.936196 22.1401 0.895843 22.2363 0.86625C22.3326 0.836658 22.4182 0.807066 22.5144 0.777473C22.6107 0.747881 22.6963 0.718288 22.7926 0.688696C22.8888 0.659104 22.9744 0.640272 23.0707 0.61068C23.167 0.581087 23.2525 0.562256 23.3488 0.532663C23.4451 0.513832 23.5307 0.484239 23.6269 0.462718C23.7232 0.443886 23.8088 0.414294 23.9051 0.392772C24.0013 0.37394 24.0869 0.352419 24.1832 0.333587C24.2794 0.314756 24.365 0.293234 24.4613 0.274402C24.5576 0.255571 24.6431 0.234049 24.7394 0.225978C24.8357 0.207147 24.9213 0.196386 25.0175 0.177554C25.1138 0.166794 25.1994 0.147962 25.2957 0.137201C25.3919 0.12644 25.4775 0.11837 25.5738 0.107609C25.67 0.0968479 25.7556 0.0887772 25.8519 0.0780163C25.9482 0.0672555 26.0337 0.0591848 26.13 0.0591848C26.2263 0.0484239 26.3119 0.0403533 26.4081 0.0403533C26.5044 0.0295924 26.59 0.0295924 26.6863 0.0215217C26.7825 0.0215217 26.8681 0.0107609 26.9644 0.0107609C27.0607 0.0107609 27.1462 0 27.2425 0C27.3388 0 27.4244 0 27.5206 0C27.6169 0 27.7025 0 27.7987 0C27.895 0 27.9806 0.0107609 28.0769 0.0107609C28.1731 0.0107609 28.2587 0.0215217 28.355 0.0215217C28.4513 0.0215217 28.5368 0.0322826 28.6331 0.0403533C28.7294 0.0511142 28.815 0.0511142 28.9112 0.0591848C29.0075 0.0699457 29.0931 0.0780163 29.1894 0.0780163C29.2856 0.0887772 29.3712 0.0968479 29.4675 0.107609C29.5637 0.11837 29.6493 0.12644 29.7456 0.137201C29.8419 0.147962 29.9274 0.166794 30.0237 0.177554C30.12 0.188315 30.2056 0.207147 30.3018 0.217908C30.3981 0.236739 30.4837 0.2475 30.58 0.266332C30.6762 0.285163 30.7618 0.306685 30.8581 0.314756C30.9544 0.333587 31.0399 0.355109 31.1362 0.37394C31.2325 0.392772 31.318 0.414294 31.4143 0.433125C31.5106 0.451957 31.5962 0.473478 31.6924 0.503071C31.7887 0.521902 31.8743 0.551495 31.9706 0.573017C32.0668 0.591848 32.1524 0.621441 32.2487 0.642962C32.345 0.672555 32.4305 0.691386 32.5268 0.720979C32.6231 0.750571 32.7087 0.769403 32.8049 0.798995C32.9012 0.828587 32.9868 0.85818 33.083 0.887772C33.1793 0.917365 33.2649 0.946957 33.3612 0.97655C33.4574 1.00614 33.543 1.03573 33.6393 1.07609C33.7356 1.10568 33.8211 1.14603 33.9174 1.17563C34.0137 1.20522 34.0993 1.24557 34.1955 1.28323C34.2918 1.32359 34.3774 1.35318 34.4737 1.39084C34.5699 1.4312 34.6555 1.46079 34.7518 1.49845C34.848 1.53881 34.9336 1.57647 35.0299 1.61682C35.1262 1.65717 35.2117 1.69484 35.308 1.73519C35.4043 1.77554 35.4899 1.81321 35.5861 1.86432C35.6824 1.90468 35.768 1.9531 35.8643 1.99345C35.9605 2.04188 36.0461 2.08223 36.1424 2.13334C36.2387 2.18177 36.3242 2.22212 36.4205 2.27323C36.5168 2.32166 36.6024 2.37277 36.6986 2.4212C36.7949 2.46962 36.8805 2.52074 36.9767 2.56916C37.073 2.61758 37.1586 2.6687 37.2549 2.72788C37.3511 2.77631 37.4367 2.83549 37.533 2.8866C37.6293 2.93503 37.7148 2.99421 37.8111 3.04533C37.9074 3.10451 37.993 3.15294 38.0892 3.21481C38.1855 3.274 38.2711 3.33318 38.3674 3.3843C38.4636 3.44348 38.5492 3.50266 38.6455 3.56185C38.7417 3.62103 38.8273 3.68022 38.9236 3.75016C39.0199 3.80935 39.1054 3.8793 39.2017 3.93848C39.298 4.00843 39.3836 4.06761 39.4798 4.13756C39.5761 4.2075 39.6617 4.27745 39.758 4.33663C39.8542 4.40658 39.9398 4.47652 40.0361 4.54378C40.1324 4.61373 40.2179 4.69174 40.3142 4.75093C40.4105 4.82894 40.5067 4.89889 40.5923 4.96883C40.6886 5.04685 40.7849 5.12756 40.8704 5.1975C40.9747 5.28628 41.063 5.36699 41.1486 5.43424C41.2636 5.53378 41.3598 5.62256 41.4267 5.68174C41.5042 5.75169 41.531 5.78935 41.531 5.78935C41.5898 5.77052 41.6353 5.749 41.6941 5.73017C41.7904 5.70057 41.876 5.66022 41.9722 5.63063C42.0685 5.60104 42.1541 5.56068 42.2504 5.53109C42.3466 5.5015 42.4322 5.4719 42.5285 5.44231C42.6247 5.41272 42.7103 5.38313 42.8066 5.35354C42.9029 5.32394 42.9884 5.29435 43.0847 5.26476C43.181 5.23517 43.2666 5.20557 43.3628 5.18674C43.4591 5.15715 43.5447 5.13832 43.641 5.10873C43.7372 5.07913 43.8228 5.0603 43.9191 5.03071C44.0154 5.01188 44.1009 4.98229 44.1972 4.96076C44.2935 4.94193 44.379 4.91234 44.4753 4.89082C44.5716 4.87199 44.6572 4.85046 44.7534 4.83163C44.8497 4.8128 44.9353 4.79128 45.0316 4.77245C45.1278 4.75362 45.2134 4.74286 45.3097 4.72402C45.406 4.70519 45.4915 4.69443 45.5878 4.6756C45.6841 4.65677 45.7697 4.64601 45.8659 4.63525C45.9622 4.62449 46.0478 4.60565 46.144 4.59489C46.2403 4.58413 46.3259 4.57606 46.4222 4.5653C46.5184 4.55454 46.604 4.54647 46.7003 4.53571C46.7966 4.52495 46.8821 4.52495 46.9784 4.51688C47.0747 4.50612 47.1603 4.50612 47.2565 4.49805C47.3528 4.49805 47.4384 4.48728 47.5347 4.48728C47.6309 4.48728 47.7165 4.48728 47.8128 4.47652C47.909 4.47652 47.9946 4.47652 48.0909 4.47652C48.1872 4.47652 48.2727 4.47652 48.369 4.48728C48.4653 4.48728 48.5509 4.49805 48.6471 4.49805C48.7434 4.50881 48.829 4.50881 48.9253 4.51688C49.0215 4.52764 49.1071 4.53571 49.2034 4.53571C49.2997 4.54647 49.3852 4.55454 49.4815 4.5653C49.5778 4.57606 49.6633 4.59489 49.7596 4.60565C49.8559 4.61642 49.9415 4.63525 50.0377 4.64601C50.134 4.66484 50.2196 4.6756 50.3159 4.69443C50.4121 4.71326 50.4977 4.73479 50.594 4.75362C50.6903 4.77245 50.7758 4.79397 50.8721 4.82356C50.9684 4.84239 51.054 4.87199 51.1502 4.89351C51.2465 4.9231 51.3321 4.94193 51.4283 4.97152C51.5246 5.00112 51.6102 5.03071 51.7065 5.0603C51.8027 5.08989 51.8883 5.11949 51.9846 5.15984C52.0809 5.18943 52.1664 5.22978 52.2627 5.26745C52.359 5.3078 52.4446 5.34546 52.5408 5.38582C52.6371 5.42617 52.7227 5.46383 52.819 5.51495C52.9152 5.5553 53.0008 5.60373 53.0971 5.64408C53.1933 5.6925 53.2789 5.73286 53.3752 5.78128C53.4715 5.8297 53.557 5.88082 53.6533 5.92924C53.7496 5.97767 53.8352 6.03685 53.9314 6.09873C54.0277 6.15791 54.1133 6.2171 54.2096 6.27628C54.3058 6.33546 54.3914 6.40541 54.4877 6.4646C54.584 6.53454 54.6695 6.59373 54.7658 6.66367C54.8621 6.73362 54.9477 6.80356 55.0439 6.87082C55.1402 6.94883 55.2258 7.01878 55.322 7.09949C55.4183 7.1775 55.5039 7.25821 55.6002 7.33623C55.6964 7.425 55.782 7.50571 55.8783 7.59449C55.9746 7.68326 56.0601 7.77204 56.1564 7.87158C56.2527 7.97112 56.3383 8.07066 56.4345 8.15943C56.5308 8.25897 56.6164 8.36658 56.7127 8.46612C56.8089 8.57373 56.8945 8.68403 56.9908 8.79163C57.087 8.91 57.1726 9.02837 57.2689 9.14674C57.3652 9.27587 57.4588 9.405 57.547 9.52337C57.6433 9.66327 57.7396 9.80047 57.8251 9.9296C57.9214 10.0776 58.015 10.2255 58.1033 10.3762C58.1995 10.5457 58.2958 10.7125 58.3814 10.8604C58.4857 11.0595 58.5713 11.237 58.6595 11.4038C58.7852 11.6702 58.8788 11.8881 58.9376 12.028C58.9858 12.1463 59.0045 12.2163 59.0045 12.2163C59.0045 12.2163 59.0713 12.2351 59.205 12.2862C59.2826 12.3158 59.3682 12.3454 59.4832 12.3858C59.5687 12.4154 59.6543 12.4557 59.7613 12.4853C59.8469 12.5149 59.9324 12.5553 60.0394 12.5929C60.125 12.6333 60.2213 12.6629 60.3175 12.7005C60.4031 12.7409 60.4994 12.7785 60.5956 12.8189C60.6812 12.8592 60.7775 12.8969 60.8738 12.948C60.9594 12.9884 61.0556 13.026 61.1519 13.0772C61.2375 13.1175 61.3337 13.1659 61.43 13.217C61.5156 13.2655 61.6119 13.3058 61.7081 13.3542C61.7937 13.4027 61.89 13.4538 61.9863 13.5022C62.0718 13.5506 62.1681 13.6017 62.2644 13.6502C62.35 13.6986 62.4462 13.7497 62.5425 13.8089C62.6281 13.8573 62.7243 13.9165 62.8206 13.9676C62.9062 14.016 63.0025 14.0752 63.0987 14.1371C63.1843 14.1963 63.2806 14.2447 63.3769 14.3066C63.4624 14.3658 63.5587 14.425 63.655 14.4841C63.7406 14.5433 63.8368 14.6025 63.9331 14.6725C64.0187 14.7316 64.115 14.8016 64.2112 14.8608C64.3075 14.9307 64.3931 14.9899 64.4893 15.0598C64.5856 15.1298 64.6712 15.197 64.7675 15.267C64.8637 15.3369 64.9493 15.4069 65.0456 15.4849C65.1419 15.5548 65.2274 15.6329 65.3237 15.7028C65.42 15.7808 65.5056 15.8508 65.6018 15.9315C65.6981 16.0095 65.7837 16.0902 65.88 16.1682C65.9762 16.2462 66.0618 16.3377 66.1581 16.4157C66.2543 16.5045 66.3399 16.5933 66.4362 16.682C66.5325 16.7708 66.618 16.8596 66.7143 16.9591C66.8106 17.0587 66.8962 17.1475 66.9924 17.247C67.0887 17.3465 67.1743 17.4461 67.2706 17.5537C67.3668 17.6613 67.4524 17.7608 67.5487 17.8711C67.645 17.9787 67.7305 18.0998 67.8268 18.2074C67.9231 18.3258 68.0087 18.4441 68.1049 18.5625C68.2012 18.6916 68.2868 18.8208 68.383 18.9472C68.4793 19.0871 68.5649 19.2243 68.6612 19.3642C68.7574 19.5122 68.843 19.6601 68.9393 19.8108C69.0356 19.9695 69.1211 20.1363 69.2174 20.3058C69.3137 20.4833 69.3993 20.6609 69.4955 20.8492C69.5918 21.0483 69.6774 21.2554 69.7737 21.4626C69.8699 21.6912 69.9635 21.928 70.0518 22.1755C70.1373 22.423 70.2229 22.6705 70.2898 22.9368C70.3005 22.9772 70.3085 23.0068 70.3192 23.0444C70.4235 23.3995 70.5091 23.7466 70.5973 24.0828C70.7016 24.5375 70.7979 24.9733 70.8754 25.3795C71.2873 27.6743 71.191 29.4283 70.8754 30.725C70.7979 31.0505 70.7043 31.3572 70.5973 31.6262C70.5117 31.8549 70.4155 32.0701 70.3192 32.2692C70.2336 32.4467 70.1374 32.6162 70.0411 32.7642C69.9448 32.9121 69.8592 33.052 69.763 33.1704C69.6667 33.2995 69.5811 33.4071 69.4848 33.5067C69.3886 33.6143 69.295 33.7138 69.2067 33.7945C69.1024 33.8941 69.0061 33.9721 68.9286 34.0313C68.8056 34.1308 68.7173 34.1792 68.7173 34.1792C68.7842 33.9802 68.851 33.7542 68.9286 33.4771C69.0329 33.0924 69.1292 32.627 69.2067 32.0809C69.3591 30.9913 69.418 29.6166 69.2067 27.9944C69.1399 27.4887 69.0543 26.9641 68.9286 26.4206C68.851 26.0655 68.7574 25.697 68.6505 25.323C68.5649 25.0271 68.4793 24.7285 68.3723 24.4326C68.2868 24.1743 68.2012 23.9187 68.0942 23.6605C68.0087 23.4318 67.9231 23.1951 67.8161 22.9664C67.7385 22.7888 67.6637 22.6005 67.5861 22.423C67.5754 22.3934 67.5567 22.3638 67.5487 22.3342C67.4631 22.1459 67.3775 21.9576 67.2706 21.78C67.185 21.6105 67.0887 21.4545 66.9924 21.2958C66.9069 21.1478 66.8106 21.0079 66.7143 20.86C66.6287 20.7308 66.5325 20.6017 66.4362 20.4753C66.3506 20.3569 66.2543 20.2385 66.1581 20.1201C66.0725 20.0125 65.9762 19.9022 65.88 19.7946C65.7944 19.687 65.6981 19.5875 65.6018 19.4879C65.5163 19.3884 65.42 19.2889 65.3237 19.2001C65.2381 19.1113 65.1419 19.0118 65.0456 18.923C64.96 18.8342 64.8637 18.7454 64.7675 18.6647C64.6819 18.5867 64.5856 18.4953 64.4893 18.4172C64.4038 18.3392 64.3075 18.2585 64.2112 18.1805C64.1257 18.1025 64.0294 18.0325 63.9331 17.9518C63.8475 17.8819 63.7513 17.8039 63.655 17.7339C63.5694 17.664 63.4731 17.5967 63.3769 17.5268C63.2913 17.4568 63.195 17.3869 63.0987 17.3277C63.0025 17.2578 62.9169 17.1986 62.8206 17.1394C62.7243 17.0802 62.6388 17.0103 62.5425 16.9511C62.4462 16.8919 62.3607 16.8327 62.2644 16.7735C62.1681 16.7143 62.0825 16.6551 61.9863 16.604C61.89 16.5448 61.8044 16.4964 61.7081 16.4345C61.6119 16.3754 61.5263 16.3269 61.43 16.2758C61.3337 16.2274 61.2482 16.1682 61.1519 16.1171C61.0556 16.0687 60.97 16.0176 60.8738 15.9691C60.7775 15.9207 60.6919 15.8696 60.5956 15.8212C60.4994 15.7728 60.4138 15.7216 60.3175 15.684C60.2213 15.6356 60.1357 15.5952 60.0394 15.5441C59.9431 15.4957 59.8576 15.4553 59.7613 15.415C59.665 15.3746 59.5794 15.3262 59.4832 15.2858C59.3869 15.2455 59.3013 15.2078 59.205 15.1675C59.1088 15.1271 59.0232 15.0894 58.9269 15.0491C58.8307 15.0087 58.7451 14.9711 58.6488 14.9307C58.5525 14.8904 58.467 14.8527 58.3707 14.8231C58.2744 14.7828 58.1888 14.7532 58.0926 14.7155C57.9963 14.6751 57.9107 14.6456 57.8144 14.616C57.7182 14.5756 57.6246 14.546 57.5363 14.5164C57.44 14.4761 57.3465 14.4465 57.2582 14.4169C57.1539 14.3765 57.0576 14.3469 56.9801 14.3281C56.8357 14.2878 56.7688 14.2582 56.7688 14.2582C56.7501 14.2178 56.7314 14.1801 56.7127 14.1398C56.6271 13.9515 56.5308 13.7739 56.4345 13.5964C56.349 13.4188 56.2527 13.2493 56.1564 13.0825C56.0708 12.9238 55.9746 12.757 55.8783 12.6064C55.7927 12.4584 55.6964 12.3104 55.6002 12.1598C55.5146 12.0199 55.4183 11.8827 55.322 11.7428C55.2365 11.6137 55.1402 11.4845 55.0439 11.3581C54.9584 11.229 54.8621 11.1106 54.7658 10.9922C54.6802 10.8739 54.584 10.7636 54.4877 10.656C54.4021 10.5483 54.3058 10.438 54.2096 10.3385C54.124 10.239 54.0277 10.1394 53.9314 10.0426C53.8459 9.94305 53.7496 9.85427 53.6533 9.76549C53.5677 9.67672 53.4715 9.58794 53.3752 9.50723C53.2896 9.42922 53.1933 9.33775 53.0971 9.25973C53.0115 9.18172 52.9152 9.11177 52.819 9.03106C52.7227 8.96112 52.6371 8.89386 52.5408 8.82392C52.4446 8.75397 52.359 8.69479 52.2627 8.62484C52.1664 8.56566 52.0809 8.50647 51.9846 8.44729C51.8883 8.3881 51.8027 8.32892 51.7065 8.2778C51.6102 8.22938 51.5246 8.17019 51.4283 8.11908C51.3321 8.07066 51.2465 8.01954 51.1502 7.97919C51.054 7.93077 50.9684 7.89041 50.8721 7.85006C50.7758 7.8097 50.6903 7.77204 50.594 7.73169C50.4977 7.69134 50.4121 7.66174 50.3159 7.62408C50.2196 7.59449 50.134 7.55413 50.0377 7.5353C49.9415 7.50571 49.8559 7.47612 49.7596 7.45729C49.6633 7.42769 49.5778 7.40886 49.4815 7.38734C49.3852 7.36851 49.2997 7.34699 49.2034 7.32816C49.1071 7.30932 49.0215 7.2878 48.9253 7.27973C48.829 7.2609 48.7434 7.25014 48.6471 7.23938C48.5509 7.22862 48.4653 7.22055 48.369 7.20979C48.2727 7.19903 48.1872 7.19095 48.0909 7.19095C47.9946 7.18019 47.909 7.18019 47.8128 7.18019C47.7165 7.18019 47.6309 7.18019 47.5347 7.16943C47.4384 7.16943 47.3528 7.16943 47.2565 7.16943C47.1603 7.16943 47.0747 7.18019 46.9784 7.18019C46.8821 7.19095 46.7966 7.19095 46.7003 7.19903C46.604 7.20979 46.5184 7.21786 46.4222 7.22862C46.3259 7.23938 46.2403 7.24745 46.144 7.26897C46.0478 7.27973 45.9622 7.29856 45.8659 7.30932C45.7697 7.32816 45.6841 7.33892 45.5878 7.35775C45.4915 7.37658 45.406 7.3981 45.3097 7.41693C45.2134 7.43576 45.1278 7.45729 45.0316 7.48688C44.9353 7.50571 44.8497 7.5353 44.7534 7.55682C44.6572 7.58642 44.5716 7.60525 44.4753 7.63484C44.379 7.66443 44.2935 7.69403 44.1972 7.72362C44.1009 7.75321 44.0154 7.7828 43.9191 7.82316C43.8228 7.85275 43.7372 7.8931 43.641 7.92269C43.5447 7.96305 43.4591 7.99264 43.3628 8.0303C43.2666 8.07066 43.181 8.10832 43.0847 8.14867C42.9884 8.18903 42.9029 8.22669 42.8066 8.26704C42.7103 8.30739 42.6247 8.35582 42.5285 8.39617C42.4322 8.4446 42.3466 8.48495 42.2504 8.53606C42.1541 8.58449 42.0685 8.6356 41.9722 8.68403C41.876 8.73245 41.7824 8.79163 41.6941 8.84275C41.5978 8.90193 41.5016 8.95036 41.416 9.00147C41.3117 9.06066 41.2234 9.11984 41.1379 9.17903C41.0122 9.25704 40.9266 9.31623 40.8597 9.36734C40.8036 9.40769 40.7742 9.42653 40.7742 9.42653C40.7153 9.34851 40.6485 9.2678 40.5816 9.17903C40.496 9.07142 40.4105 8.96112 40.3035 8.84275C40.2179 8.74321 40.1324 8.6356 40.0254 8.5253C39.9398 8.42577 39.8435 8.32623 39.7473 8.21862C39.6617 8.11908 39.5654 8.0303 39.4691 7.93076C39.3836 7.84199 39.2873 7.75321 39.191 7.65367C39.1054 7.5649 39.0092 7.47612 38.9129 7.38734C38.8273 7.30932 38.731 7.21786 38.6348 7.12908C38.5492 7.05106 38.4529 6.97036 38.3567 6.88158C38.2711 6.80356 38.1748 6.72286 38.0785 6.64484C37.993 6.56682 37.8967 6.49688 37.8004 6.41617C37.7148 6.34623 37.6186 6.26821 37.5223 6.19826C37.4367 6.12832 37.3404 6.06106 37.2442 5.99112C37.1586 5.92117 37.0623 5.85123 36.966 5.79204C36.8805 5.7221 36.7842 5.66291 36.6879 5.59296C36.6024 5.53378 36.5061 5.46383 36.4098 5.40465C36.3242 5.34546 36.228 5.28628 36.1317 5.22709C36.0461 5.16791 35.9498 5.10873 35.8536 5.05761C35.768 4.99843 35.6717 4.95 35.5754 4.88813C35.4899 4.8397 35.3936 4.78052 35.2973 4.7294C35.2117 4.68098 35.1155 4.62987 35.0192 4.58144C34.9336 4.53302 34.8374 4.4819 34.7411 4.43348C34.6555 4.38506 34.5592 4.3447 34.463 4.29359C34.3774 4.24516 34.2811 4.20481 34.1848 4.16446C34.0993 4.1241 34.003 4.07568 33.9067 4.03533C33.8211 3.99497 33.7249 3.95731 33.6286 3.91696C33.543 3.87661 33.4467 3.83894 33.3505 3.79859C33.2649 3.75824 33.1686 3.72864 33.0723 3.69098C32.9868 3.66139 32.8905 3.62103 32.7942 3.59144C32.7087 3.56185 32.6124 3.53226 32.5161 3.4919C32.4305 3.46231 32.3343 3.43272 32.238 3.40313C32.1524 3.37353 32.0561 3.34394 31.9599 3.31435C31.8743 3.28476 31.778 3.26593 31.6817 3.23633C31.5962 3.20674 31.4999 3.18791 31.4036 3.16639C31.3181 3.14756 31.2218 3.11796 31.1255 3.09644C31.0399 3.07761 30.9437 3.05609 30.8474 3.03726C30.7618 3.01843 30.6655 2.9969 30.5693 2.97807C30.4837 2.95924 30.3874 2.94848 30.2911 2.92965C30.2056 2.91082 30.1093 2.90006 30.013 2.88122C29.9274 2.87046 29.8312 2.85163 29.7349 2.84087C29.6493 2.83011 29.553 2.82204 29.4568 2.80052C29.3712 2.78976 29.2749 2.78169 29.1787 2.77093C29.0931 2.76016 28.9968 2.75209 28.9005 2.75209C28.815 2.74133 28.7187 2.74133 28.6224 2.73326C28.5368 2.7225 28.4406 2.7225 28.3443 2.7225C28.2587 2.7225 28.1624 2.71174 28.0662 2.71174C27.9806 2.71174 27.8843 2.71174 27.788 2.71174C27.7025 2.71174 27.6062 2.71174 27.5099 2.71174C27.4244 2.71174 27.3281 2.7225 27.2318 2.7225C27.1462 2.7225 27.05 2.73326 26.9537 2.73326C26.8681 2.74402 26.7718 2.74402 26.6756 2.75209C26.59 2.76285 26.4937 2.77093 26.3974 2.77093C26.3012 2.78169 26.2156 2.78976 26.1193 2.80052C26.0337 2.81128 25.9375 2.81935 25.8412 2.84087C25.7556 2.85163 25.6594 2.87046 25.5631 2.88122C25.4668 2.89199 25.3812 2.91082 25.285 2.92158C25.1994 2.94041 25.1031 2.95117 25.0068 2.97C24.9213 2.98883 24.825 3.01035 24.7287 3.01843C24.6431 3.03726 24.5469 3.05878 24.4506 3.07761C24.365 3.09644 24.2687 3.11796 24.1725 3.14756C24.0762 3.16639 23.9906 3.19598 23.8944 3.2175C23.8088 3.23633 23.7125 3.26593 23.6162 3.29552C23.5307 3.32511 23.4344 3.34394 23.3381 3.37353C23.2418 3.40313 23.1563 3.43272 23.06 3.46231C22.9744 3.4919 22.8781 3.5215 22.7819 3.55109C22.6856 3.58068 22.6 3.61027 22.5037 3.65063C22.4182 3.68022 22.3219 3.72057 22.2256 3.75016C22.14 3.77976 22.0438 3.82011 21.9475 3.85777C21.8512 3.89813 21.7657 3.92772 21.6694 3.96538C21.5838 4.00574 21.4875 4.0434 21.3913 4.08375C21.3057 4.1241 21.2281 4.1537 21.1426 4.19136C21.1319 4.19136 21.1238 4.20212 21.1131 4.20212C21.0169 4.24248 20.9313 4.2909 20.835 4.33125C20.7387 4.37161 20.6532 4.42003 20.5569 4.46038C20.4606 4.50881 20.375 4.54916 20.2788 4.60027C20.1825 4.6487 20.0969 4.69981 20.0007 4.74824C19.9044 4.79666 19.8188 4.84777 19.7225 4.8962C19.6263 4.94462 19.5407 4.99574 19.4444 5.05492C19.3481 5.10334 19.2626 5.16253 19.1663 5.21364C19.07 5.27283 18.9844 5.32125 18.8882 5.38313C18.7919 5.44231 18.7063 5.5015 18.6101 5.56068C18.5138 5.61987 18.4282 5.67905 18.3319 5.749C18.2357 5.80818 18.1501 5.87813 18.0538 5.93731C17.9575 6.00726 17.872 6.06644 17.7757 6.13639C17.6794 6.20633 17.5938 6.27628 17.4976 6.34354C17.4013 6.41348 17.3157 6.48343 17.2194 6.56144C17.1232 6.63946 17.0376 6.70941 16.9413 6.79011C16.8451 6.86813 16.7595 6.94883 16.6632 7.02685C16.5669 7.10487 16.4814 7.19633 16.3851 7.27435C16.2888 7.36313 16.2032 7.44384 16.107 7.53261C16.0107 7.62139 15.9251 7.71017 15.8288 7.79894C15.7326 7.88772 15.647 7.98726 15.5507 8.07604C15.4544 8.17557 15.3689 8.27511 15.2726 8.36389C15.1763 8.46343 15.0907 8.57104 14.9945 8.67058C14.8982 8.77818 14.8126 8.88848 14.7164 8.98802C14.6201 9.09563 14.5345 9.21669 14.4382 9.3243C14.342 9.44267 14.2564 9.56104 14.1601 9.67941C14.0638 9.79778 13.9783 9.92691 13.882 10.0453C13.7857 10.1744 13.7001 10.3035 13.6039 10.43C13.5076 10.5699 13.422 10.7071 13.3257 10.847C13.2295 10.9949 13.1439 11.1429 13.0476 11.2828C12.9514 11.4415 12.8658 11.5895 12.7695 11.7482C12.6732 11.9177 12.5877 12.0845 12.4914 12.2432C12.3951 12.4207 12.3095 12.5983 12.2133 12.7785C12.117 12.9669 12.0314 13.1632 11.9351 13.3516C11.8389 13.5587 11.7453 13.7685 11.657 13.9757C11.5607 14.2044 11.4671 14.4303 11.3789 14.659C11.2826 14.9173 11.189 15.1728 11.1008 15.4123C10.9965 15.7082 10.9109 15.996 10.8227 16.2731C10.7184 16.6282 10.6328 16.9672 10.5445 17.282C10.4295 17.7662 10.3333 18.1913 10.2664 18.5598C10.122 19.3427 10.0953 19.8081 10.0953 19.8081C10.0658 19.8188 10.0284 19.8269 9.99899 19.8269C9.90272 19.8457 9.81714 19.8673 9.72087 19.8861C9.6246 19.9049 9.53902 19.9265 9.44275 19.956C9.34648 19.9749 9.2609 20.0045 9.16463 20.026C9.06836 20.0556 8.98278 20.0744 8.88651 20.104C8.79023 20.1336 8.70466 20.1524 8.60839 20.182C8.51211 20.2116 8.42654 20.2412 8.33026 20.2708C8.23399 20.3004 8.14842 20.33 8.05214 20.3596C7.95587 20.3892 7.8703 20.4295 7.77402 20.4591C7.67775 20.4995 7.59217 20.5291 7.4959 20.5667C7.39963 20.6071 7.31405 20.6367 7.21778 20.6743C7.12151 20.7147 7.03593 20.7523 6.93966 20.7927C6.84339 20.8331 6.75781 20.8815 6.66154 20.9218C6.56526 20.9703 6.47969 21.0106 6.38342 21.0617C6.28714 21.1101 6.20157 21.1613 6.10529 21.2097C6.00902 21.2581 5.92345 21.3173 5.82717 21.3684C5.7309 21.4276 5.64533 21.476 5.54905 21.5379C5.45278 21.5971 5.3672 21.6563 5.27093 21.7154C5.17466 21.7746 5.08908 21.8446 4.99281 21.9145C4.89654 21.9845 4.81096 22.0544 4.71469 22.1217C4.61842 22.1916 4.53284 22.2696 4.43657 22.3503C4.34029 22.4284 4.25472 22.5091 4.15845 22.5978C4.06217 22.6866 3.9766 22.7754 3.88033 22.8642C3.78405 22.9637 3.69848 23.0525 3.6022 23.152C3.50593 23.2516 3.42036 23.3592 3.32408 23.4695C3.22781 23.5771 3.14223 23.6981 3.04596 23.8165C2.94969 23.9456 2.86411 24.064 2.76784 24.1931C2.67157 24.333 2.57797 24.481 2.48972 24.6182C2.39345 24.7769 2.29985 24.9437 2.2116 25.1024C2.11533 25.2907 2.02173 25.4791 1.93348 25.6674C1.8372 25.896 1.74361 26.122 1.65536 26.3507C1.55106 26.6466 1.45479 26.9345 1.37723 27.2304C1.25422 27.685 1.16597 28.1397 1.09911 28.5755C0.861106 30.2192 0.994818 31.6343 1.09911 32.366C1.14725 32.7023 1.18469 32.8906 1.18469 32.8906C1.15527 32.8422 1.12853 32.7911 1.09911 32.7427C1.00284 32.5759 0.909242 32.3956 0.820992 32.2288C0.716697 32.0109 0.631121 31.793 0.542871 31.5751C0.438576 31.2523 0.344977 30.9563 0.278121 30.647Z" fill="url(#paint0_linear)"/>
<defs>
<linearGradient id="paint0_linear" x1="0" y1="17.0844" x2="70.9209" y2="17.0844" gradientUnits="userSpaceOnUse">
<stop stop-color="#4DB849"/>
<stop offset="0.5312" stop-color="#FFE500"/>
<stop offset="1" stop-color="#F6841F"/>
</linearGradient>
</defs>
</svg>
