<svg width="49" height="50" viewBox="0 0 49 50" fill="none" xmlns="http://www.w3.org/2000/svg">
<rect x="0.0240479" y="0.667969" width="48.5049" height="48.5049" rx="10" fill="url(#paint0_linear)"/>
<path d="M36.2924 20.7473C36.2924 20.7473 36.0627 19.1264 35.3585 18.4113C34.4638 17.475 33.4608 17.4703 33.0013 17.4146C29.7086 17.177 24.766 17.177 24.766 17.177C24.766 17.177 19.8226 17.177 16.5307 17.4154C16.0712 17.4703 15.0682 17.475 14.1735 18.4121C13.4678 19.1264 13.2388 20.7473 13.2388 20.7473C13.2388 20.7473 13.0035 22.3313 13.0035 24.2345V26.5878C13.0035 28.4909 13.2388 30.1471 13.2388 30.1471C13.2388 30.1471 13.4678 31.7672 14.1735 32.4815C15.0682 33.4186 16.2437 33.3896 16.7675 33.4876C18.6495 33.668 24.766 33.6452 24.766 33.6452C24.766 33.6452 29.7086 33.7158 33.0013 33.4782C33.4608 33.4233 34.4638 33.4186 35.3585 32.4815C36.0627 31.768 36.2924 30.1471 36.2924 30.1471C36.2924 30.1471 36.5285 28.4917 36.5285 26.5885V24.2353C36.5285 22.3313 36.2924 20.7473 36.2924 20.7473ZM22.2601 28.5529V22.2796L28.5334 25.4162L22.2601 28.5529Z" fill="white"/>
<defs>
<linearGradient id="paint0_linear" x1="24.2765" y1="0.667969" x2="24.2765" y2="49.1729" gradientUnits="userSpaceOnUse">
<stop stop-color="#F76201"/>
<stop offset="1" stop-color="#FF4D00"/>
</linearGradient>
</defs>
</svg>
